<?xml version="1.0" encoding="UTF-8"?>
<!DOCTYPE svg PUBLIC "-//W3C//DTD SVG 1.1//EN" "http://www.w3.org/Graphics/SVG/1.1/DTD/svg11.dtd">
<!-- Creator: CorelDRAW 2020 (64-Bit) -->
<svg xmlns="http://www.w3.org/2000/svg" xml:space="preserve" width="276px" height="64px" version="1.1" style="shape-rendering:geometricPrecision; text-rendering:geometricPrecision; image-rendering:optimizeQuality; fill-rule:evenodd; clip-rule:evenodd"
viewBox="0 0 120.2 27.88"
 xmlns:xlink="http://www.w3.org/1999/xlink"
 xmlns:xodm="http://www.corel.com/coreldraw/odm/2003">
 <defs>
  <style type="text/css">
   <![CDATA[
    .fil1 {fill:#C59B8C;fill-rule:nonzero}
    .fil0 {fill:#5C5C5C;fill-rule:nonzero}
   ]]>
  </style>
 </defs>
 <g id="Layer_x0020_1">
  <metadata id="CorelCorpID_0Corel-Layer"/>
  <g id="_2561821762288">
   <path class="fil0" d="M33.68 22.24c-0.18,0 -0.31,-0.06 -0.39,-0.19 -0.09,-0.12 -0.09,-0.26 -0.02,-0.42l7.18 -15.89c0.09,-0.17 0.23,-0.26 0.4,-0.26l0.24 0c0.17,0 0.3,0.09 0.4,0.26l7.13 15.89c0.08,0.16 0.07,0.3 -0.01,0.42 -0.09,0.13 -0.22,0.19 -0.39,0.19l-0.95 0c-0.2,0 -0.34,-0.08 -0.4,-0.26l-1.75 -3.89 -8.38 0 -1.72 3.89c-0.06,0.18 -0.2,0.26 -0.4,0.26l-0.94 0zm3.73 -5.62l7.08 0c-0.4,-0.86 -0.97,-2.15 -1.73,-3.87 -0.75,-1.71 -1.33,-3 -1.72,-3.87l-0.19 0 -3.44 7.74zm12.98 5.32l0 -10.41c0,-0.09 0.03,-0.16 0.09,-0.22 0.05,-0.05 0.12,-0.08 0.21,-0.08l4.07 0c0.95,0 1.76,0.32 2.43,0.97 0.67,0.65 1,1.44 1,2.38 0,0.71 -0.21,1.35 -0.63,1.93 -0.43,0.57 -0.99,1 -1.69,1.28l2.15 4c0.06,0.1 0.07,0.2 0.01,0.3 -0.06,0.1 -0.15,0.15 -0.28,0.15l-0.8 0c-0.11,0 -0.2,-0.04 -0.25,-0.14l-2.09 -4.17 -3.01 0 0 4.01c0,0.08 -0.03,0.15 -0.09,0.21 -0.05,0.06 -0.12,0.09 -0.21,0.09l-0.61 0c-0.09,0 -0.16,-0.03 -0.21,-0.08 -0.06,-0.06 -0.09,-0.13 -0.09,-0.22zm1.24 -5.05l3.05 0c0.61,0 1.14,-0.22 1.59,-0.67 0.46,-0.44 0.68,-0.99 0.68,-1.63 0,-0.59 -0.22,-1.11 -0.68,-1.55 -0.45,-0.44 -0.98,-0.67 -1.59,-0.67l-3.05 0 0 4.52zm10.72 5.05l0 -9.66 -2.74 0c-0.08,0 -0.15,-0.03 -0.21,-0.09 -0.06,-0.05 -0.09,-0.12 -0.09,-0.21l0 -0.45c0,-0.09 0.03,-0.16 0.09,-0.22 0.06,-0.05 0.13,-0.08 0.21,-0.08l6.67 0c0.09,0 0.16,0.03 0.22,0.08 0.05,0.06 0.08,0.13 0.08,0.22l0 0.45c0,0.09 -0.03,0.16 -0.08,0.21 -0.06,0.06 -0.13,0.09 -0.22,0.09l-2.74 0 0 9.66c0,0.08 -0.02,0.15 -0.08,0.21 -0.06,0.06 -0.13,0.09 -0.21,0.09l-0.6 0c-0.09,0 -0.16,-0.03 -0.21,-0.09 -0.06,-0.06 -0.09,-0.13 -0.09,-0.21zm4.12 0.3c-0.11,0 -0.2,-0.04 -0.26,-0.12 -0.06,-0.09 -0.06,-0.18 -0.01,-0.29l4.79 -10.59c0.06,-0.11 0.15,-0.17 0.27,-0.17l0.15 0c0.12,0 0.21,0.06 0.27,0.17l4.75 10.59c0.06,0.11 0.05,0.2 0,0.29 -0.06,0.08 -0.15,0.12 -0.26,0.12l-0.63 0c-0.14,0 -0.23,-0.06 -0.27,-0.17l-1.17 -2.6 -5.58 0 -1.15 2.6c-0.04,0.11 -0.13,0.17 -0.27,0.17l-0.63 0zm2.49 -3.74l4.72 0c-0.26,-0.58 -0.65,-1.44 -1.15,-2.58 -0.5,-1.15 -0.89,-2.01 -1.15,-2.59l-0.12 0 -2.3 5.17zm9.19 3.44l0 -10.59c0,-0.07 0.03,-0.14 0.09,-0.19 0.05,-0.06 0.12,-0.09 0.21,-0.09l0.39 0 7.1 8.84 0.03 0 0 -8.38c0,-0.09 0.03,-0.16 0.09,-0.22 0.05,-0.05 0.13,-0.08 0.21,-0.08l0.55 0c0.07,0 0.14,0.03 0.2,0.09 0.07,0.06 0.1,0.13 0.1,0.21l0 10.59c0,0.07 -0.03,0.14 -0.09,0.19 -0.06,0.06 -0.13,0.09 -0.21,0.09l-0.28 0 -7.23 -9.02 -0.01 0 0 8.56c0,0.09 -0.03,0.16 -0.09,0.22 -0.06,0.05 -0.13,0.08 -0.21,0.08l-0.55 0c-0.08,0 -0.14,-0.03 -0.21,-0.09 -0.06,-0.06 -0.09,-0.13 -0.09,-0.21zm12.18 0l0 -10.41c0,-0.08 0.03,-0.15 0.09,-0.21 0.07,-0.06 0.14,-0.09 0.21,-0.09l0.63 0c0.07,0 0.14,0.03 0.2,0.09 0.07,0.06 0.1,0.13 0.1,0.21l0 10.41c0,0.08 -0.03,0.15 -0.1,0.21 -0.06,0.06 -0.13,0.09 -0.2,0.09l-0.63 0c-0.07,0 -0.14,-0.03 -0.21,-0.09 -0.06,-0.06 -0.09,-0.13 -0.09,-0.21zm3.82 -0.82c-0.19,-0.15 -0.22,-0.33 -0.09,-0.53 0.03,-0.03 0.07,-0.08 0.13,-0.15 0.05,-0.07 0.08,-0.12 0.11,-0.15 0.18,-0.25 0.37,-0.3 0.55,-0.14 0.93,0.8 1.82,1.2 2.66,1.2 0.61,0 1.12,-0.17 1.51,-0.51 0.4,-0.33 0.59,-0.74 0.59,-1.23 0,-0.51 -0.21,-0.95 -0.65,-1.33 -0.43,-0.37 -1.13,-0.75 -2.1,-1.15 -0.96,-0.42 -1.67,-0.86 -2.11,-1.32 -0.44,-0.45 -0.66,-1.1 -0.66,-1.94 0,-0.29 0.06,-0.59 0.18,-0.9 0.12,-0.3 0.31,-0.6 0.55,-0.89 0.25,-0.3 0.6,-0.54 1.06,-0.73 0.45,-0.19 0.98,-0.28 1.56,-0.28 0.46,0 0.92,0.07 1.36,0.2 0.45,0.14 0.78,0.27 1,0.4l0.33 0.2c0.08,0.03 0.13,0.09 0.16,0.17 0.03,0.09 0.01,0.21 -0.06,0.37 -0.02,0.03 -0.05,0.08 -0.1,0.15 -0.04,0.06 -0.07,0.11 -0.09,0.15 -0.15,0.22 -0.33,0.26 -0.55,0.14 -0.85,-0.49 -1.54,-0.73 -2.06,-0.73 -0.75,0 -1.3,0.19 -1.65,0.55 -0.35,0.37 -0.52,0.76 -0.52,1.18 0,0.51 0.17,0.93 0.52,1.27 0.35,0.34 0.89,0.66 1.6,0.95 1.21,0.5 2.09,0.99 2.65,1.48 0.56,0.5 0.84,1.17 0.84,2.02 0,0.8 -0.33,1.48 -1,2.02 -0.66,0.54 -1.46,0.81 -2.4,0.81 -0.55,0 -1.1,-0.1 -1.64,-0.31 -0.54,-0.2 -0.92,-0.38 -1.13,-0.53 -0.22,-0.15 -0.4,-0.3 -0.55,-0.44zm9.01 0.74l0 -10.26c0,-0.1 0.03,-0.19 0.11,-0.26 0.07,-0.08 0.16,-0.11 0.26,-0.11l0.46 0c0.1,0 0.19,0.03 0.27,0.11 0.07,0.07 0.11,0.16 0.11,0.26l0 4.46 4.91 -4.68c0.08,-0.1 0.18,-0.15 0.3,-0.15l0.77 0c0.14,0 0.24,0.06 0.29,0.18 0.05,0.13 0.01,0.25 -0.1,0.37l-4.98 4.64 5.21 5.33c0.08,0.06 0.09,0.15 0.04,0.29 -0.05,0.13 -0.15,0.2 -0.3,0.2l-0.81 0c-0.13,0 -0.23,-0.03 -0.28,-0.11l-5.05 -5.27 0 5c0,0.11 -0.04,0.2 -0.11,0.27 -0.08,0.08 -0.17,0.11 -0.27,0.11l-0.46 0c-0.1,0 -0.19,-0.03 -0.26,-0.11 -0.08,-0.07 -0.11,-0.16 -0.11,-0.27zm11.94 0.08l0 -5 -3.79 -5.26c-0.07,-0.1 -0.07,-0.2 -0.02,-0.3 0.05,-0.1 0.14,-0.15 0.27,-0.15l0.74 0c0.09,0 0.18,0.04 0.25,0.14l3.18 4.39 3.18 -4.39c0.07,-0.1 0.16,-0.14 0.25,-0.14l0.74 0c0.13,0 0.22,0.05 0.27,0.15 0.05,0.1 0.04,0.2 -0.02,0.3l-3.84 5.24 0 5.02c0,0.08 -0.03,0.15 -0.09,0.21 -0.07,0.06 -0.13,0.09 -0.21,0.09l-0.61 0c-0.08,0 -0.16,-0.03 -0.21,-0.08 -0.06,-0.06 -0.09,-0.13 -0.09,-0.22z"/>
   <path class="fil1" d="M22.06 14.33c0.35,0.61 0.15,1.39 -0.46,1.74 -0.6,0.36 -1.38,0.15 -1.74,-0.45l-6.93 -11.8 -2.27 4.02 4.16 7.46c2.83,0.4 5.46,1.66 7.6,3.23 3.34,2.47 5.55,5.82 5.55,8.06 -0.01,0.7 -0.58,1.27 -1.28,1.27l-6.97 0.01c-0.47,0.02 -0.93,-0.22 -1.17,-0.65l-5.3 -9.5 -0.35 -0.01c-2.77,0 -5.06,1.11 -6.77,2.6 -1.77,1.53 -2.93,3.44 -3.37,4.96l8.5 0.05 -2.58 -4.49c-0.35,-0.61 -0.14,-1.38 0.47,-1.73 0.61,-0.35 1.38,-0.14 1.73,0.47l3.68 6.38c0.11,0.19 0.18,0.42 0.18,0.66 0,0.71 -0.58,1.27 -1.28,1.27l-12.18 -0.07c-0.71,0 -1.28,-0.57 -1.28,-1.27 0,-2.19 1.58,-5.66 4.46,-8.16 1.91,-1.66 4.4,-2.93 7.39,-3.18l-3.75 -6.72c-0.22,-0.38 -0.24,-0.87 -0.01,-1.28l3.71 -6.56c0.11,-0.18 0.26,-0.35 0.46,-0.47 0.61,-0.35 1.39,-0.15 1.74,0.46l8.06 13.7zm-5.57 3.97l3.92 7.02 4.69 0c-0.62,-1.44 -2.14,-3.22 -4.19,-4.73 -1.3,-0.96 -2.8,-1.78 -4.42,-2.29z"/>
  </g>
 </g>
</svg>
